<svg xmlns="http://www.w3.org/2000/svg" viewBox="0 0 303.97 98.63"><path d="M46,82.12a2,2,0,0,0-2.49.08,34.52,34.52,0,0,0-3.93,4.1c-3.75,4.23-6.39,7.43-9.18,5.37C28.1,90,44,51.14,44.45,49.62c.85-2.78,3.27-12.58-3.51-15S26.06,33.77,17.1,40.3a52,52,0,0,0-9.32,9.32A19.4,19.4,0,0,0,5,53.6a1.76,1.76,0,0,0,.21,2.25,2,2,0,0,0,2.49-.07,34.52,34.52,0,0,0,3.93-4.1c3.75-4.24,11.51-10.16,14.3-8.1,2.31,1.71-.22,6-5.52,18.94h-.05S11.4,84,10.45,91.59c-.4,3.2-.93,8.54,4.13,11.16,7.49,3.89,14.79.33,22.38-7.09,4.51-4.4,8.83-10.27,9.26-11.29A1.76,1.76,0,0,0,46,82.12" transform="translate(-4.71 -5.71)" style="fill:#e60012"/><path d="M51.79,18.77A12.35,12.35,0,0,1,39.24,29.59a10.37,10.37,0,0,1-9.82-11.88A12.35,12.35,0,0,1,42,6.9a10.36,10.36,0,0,1,9.82,11.87" transform="translate(-4.71 -5.71)" style="fill:#f08300"/><path d="M117,14c0-4.25-4.15-4.25-5.39-4.25H79c-1.14,0-3.52.31-3.52,2.9s2.28,2.9,3.52,2.9H98.31c.41,0,1.45,0,1.45,1C99.76,18,96,23,93.75,26c-2.28-1.14-11-5.38-12.74-5.38a2.93,2.93,0,0,0-2.69,2.9c0,1.24.72,1.76,1.86,2.59A82.85,82.85,0,0,1,93.75,39c3.32,4,3.47,4.41,5.49,4.86a6.15,6.15,0,0,0,5.05-.9,7.7,7.7,0,0,0,3.45-5.93c0-2.9-2.18-4.46-6.43-7,3.84-3,10-7.77,13.37-11.5C116.23,17,117,15.82,117,14" transform="translate(-4.71 -5.71)" style="fill:#009c74"/><path d="M103.88,46.76a2.77,2.77,0,0,0-3-2.76c-3,.06-27.11,0-27.11,0-1.14,0-3.52.21-3.52,2.8s2.28,2.9,3.52,2.9H89A1.32,1.32,0,0,1,90.33,51V93.94c0,2.07-.52,2.69-2.8,2.69H82.35c-1.14,0-3.52.31-3.52,2.9s2.28,2.9,3.52,2.9H94.78c4.56,0,9.12-1.76,9.12-7.87V52.8h0Z" transform="translate(-4.71 -5.71)" style="fill:#009c74"/><path d="M170.53,9.85H125c-1.14,0-3.52.31-3.52,2.9s2.28,2.9,3.52,2.9h13.47c-.28,1.53-1.29,5.63-1.83,7.49h11.68c1.23-1.66,4.37-5.69,5.48-7.49h16.78c1.14,0,3.42-.31,3.42-2.9s-2.17-2.9-3.42-2.9" transform="translate(-4.71 -5.71)" style="fill:#009c74"/><path d="M280.52,26.58a2.93,2.93,0,0,0,0,5.86h2.31a2.93,2.93,0,1,0,0-5.86Z" transform="translate(-4.71 -5.71)" style="fill:#f091a7"/><path d="M305.75,64.25h-2.9a2.93,2.93,0,0,0,0,5.86h2.9a2.93,2.93,0,1,0,0-5.86" transform="translate(-4.71 -5.71)" style="fill:#70d44b"/><path d="M206,92s-5.89,0-7.22,0a2.27,2.27,0,0,0-1.9,1l-6.5,8.58a1.76,1.76,0,0,0,1.45,2.75h5.63a4.35,4.35,0,0,0,3.61-1.92l6.11-8A1.5,1.5,0,0,0,206,92" transform="translate(-4.71 -5.71)" style="fill:#009c74"/><path d="M221,93a2.24,2.24,0,0,0-1.89-1c-1.33,0-7.22,0-7.22,0a1.5,1.5,0,0,0-1.18,2.43l6.1,8a4.38,4.38,0,0,0,3.62,1.92h5.63a1.76,1.76,0,0,0,1.45-2.75Z" transform="translate(-4.71 -5.71)" style="fill:#009c74"/><path d="M225.43,64.62H213.19a3.57,3.57,0,0,1,0-7.13h12.24a3.57,3.57,0,1,1,0,7.13" transform="translate(-4.71 -5.71)" style="fill:#70d44b"/><path d="M213.38,67.08V82.86h-8.06V38.66h2.77a3.56,3.56,0,1,0,0-7.11h-2.77V17.22c0-1.88.52-2.62,2.72-2.62h2.72c2.1,0,2.62.74,2.62,2.62V55h10.78V17c0-5.76-3.88-8-9.22-8H202.69c-4.61,0-9.21,1.68-9.21,8V82c0,5.65,3.87,8,9.21,8h1a2,2,0,0,0,.24,0H214a1.81,1.81,0,0,0,.23,0h.68c4.72,0,9.22-1.78,9.22-8V67.08Z" transform="translate(-4.71 -5.71)" style="fill:#009c74"/><path d="M270.13,86.11v8.4c0,2-.52,2.62-2.72,2.62h-6.08c-1,0-3.56.21-3.56,2.93s2.52,2.93,3.56,2.93h12.36c4.61,0,9.22-1.78,9.22-7.95V86.11Z" transform="translate(-4.71 -5.71)" style="fill:#009c74"/><path d="M287,77.91h-9.6a2.93,2.93,0,1,0,0,5.86H287a2.93,2.93,0,1,0,0-5.86" transform="translate(-4.71 -5.71)" style="fill:#f091a7"/><path d="M297.38,39.53H275.05V20h7.12a5.91,5.91,0,0,0,.86-.07h5.23a2.93,2.93,0,1,0,0-5.86H275.05c0-3.86,0-8.31-6.8-8.31-6.46,0-6.5,4.55-6.5,8.31H251.43a2.2,2.2,0,0,0-.36,0c0-3.66,0-8.35-6.6-8.35-6.38,0-6.38,4.82-6.38,8.38h-6.81c-1.15,0-3.56.21-3.56,2.93S230.13,20,231.28,20h6.81v6.6h-4.51c-1,0-3.56.21-3.56,2.93s2.41,2.93,3.56,2.93h4.51v7.12h-9.43c-1,0-3.56.21-3.56,2.94s2.41,2.93,3.56,2.93h21.16v5.65H239.24c-4.61,0-9.22,1.78-9.22,8v37.7c0,2.1,0,7.33,6.5,7.33s6.38-4.81,6.38-7.33V88.84h0v-5h26a2.93,2.93,0,1,0,0-5.86h-5.66V70.11h6.91v5.58h12.78V70.11h11.15a3,3,0,0,0,3.1-2.77,2.93,2.93,0,0,0-2.93-3.09H282.91V59c0-5.65-3.88-8-9.22-8H263.22V45.4h34.16c1.15,0,3.56-.32,3.56-2.93s-2.41-2.94-3.56-2.94M251.07,20h10.68v6.6H251.07Zm0,12.46h10.68v7.12H251.07ZM242.9,74.49h0V59.54c0-2,.53-2.62,2.62-2.62h4.3v7.33h-2.35A3,3,0,0,0,244.38,67a2.93,2.93,0,0,0,2.92,3.09h2.52v4.38h0V78H242.9Zm24.51-17.57c2.2,0,2.72.63,2.72,2.62v4.71h-6.91V56.92Z" transform="translate(-4.71 -5.71)" style="fill:#009c74"/><path d="M136.35,88.39A7.59,7.59,0,1,0,143.94,96a7.59,7.59,0,0,0-7.59-7.59" transform="translate(-4.71 -5.71)" style="fill:#f08300"/><path d="M161,88.39A7.59,7.59,0,1,0,168.61,96,7.59,7.59,0,0,0,161,88.39" transform="translate(-4.71 -5.71)" style="fill:#f08300"/><path d="M153.6,47.61H143.2a1.2,1.2,0,0,1-1.2-1.2V37.07a1.2,1.2,0,0,1,1.2-1.2h10.4a1.2,1.2,0,0,1,1.2,1.2v9.34a1.2,1.2,0,0,1-1.2,1.2" transform="translate(-4.71 -5.71)" style="fill:#009c74"/><path d="M149.49,65.69a1.3,1.3,0,0,1-2.18,0l-3-4.72-2.83-4.43a1.29,1.29,0,0,1,1.08-2h11.72a1.29,1.29,0,0,1,1.08,2L152.51,61Z" transform="translate(-4.71 -5.71)" style="fill:#e60012"/><path d="M177.59,79.64H124.11a3.22,3.22,0,0,1-3.23-3.23v-27h0c0-4.42-4-4.81-6-4.81l-6,0h-.15a2.85,2.85,0,0,0,0,5.7h.82c.41,0,1.55,0,1.55,1.24h0l0,27.06a6.77,6.77,0,0,0,6.76,6.77l59.59.1a3,3,0,0,0,2.95-2.3,2.93,2.93,0,0,0-2.86-3.54" transform="translate(-4.71 -5.71)" style="fill:#f08300"/><path d="M167.83,26.57H129.08a5,5,0,0,0-5,5l1.17,39.47a5,5,0,0,0,5,5h36.42a5,5,0,0,0,5-5l1.16-39.47a5,5,0,0,0-5-5m-6.69,40.31a4,4,0,0,1-4.2,3.76H140a4,4,0,0,1-4.21-3.76l-1.32-32.55A2.46,2.46,0,0,1,137,32h22.85a2.46,2.46,0,0,1,2.58,2.31Z" transform="translate(-4.71 -5.71)" style="fill:#f08300"/></svg>